<?xml version="1.0" encoding="UTF-8"?>
<svg width="32" height="32" viewBox="0 0 32 32" fill="none" xmlns="http://www.w3.org/2000/svg">
  <path d="M8 16C8 11.5817 11.5817 8 16 8C20.4183 8 24 11.5817 24 16M8 16C8 20.4183 11.5817 24 16 24C20.4183 24 24 20.4183 24 16M8 16H24" stroke="#2563EB" stroke-width="4" stroke-linecap="round" fill="#2563EB"/>
  <path d="M12 16C12 13.7909 13.7909 12 16 12C18.2091 12 20 13.7909 20 16M12 16C12 18.2091 13.7909 20 16 20C18.2091 20 20 18.2091 20 16M12 16H20" stroke="#2563EB" stroke-width="4" stroke-linecap="round" fill="#2563EB"/>
</svg> 